name C:/MyDriveSym/Projects/mobilecap/Data\Session20210827_0002\mocap\ForceDataProcessed\walking1_forces.mot
datacolumns 19
datarows 22
range 0.96700000 0.97750000
endheader 
time	R_ground_force_vx	R_ground_force_vy	R_ground_force_vz	R_ground_force_px	R_ground_force_py	R_ground_force_pz	R_ground_torque_x	R_ground_torque_y	R_ground_torque_z	L_ground_force_vx	L_ground_force_vy	L_ground_force_vz	L_ground_force_px	L_ground_force_py	L_ground_force_pz	L_ground_torque_x	L_ground_torque_y	L_ground_torque_z	
          0.96700000	          0.00000000	          0.00000000	          0.00000000	          1.24244400	          0.00000000	         -0.18636600	          0.00000000	          0.00000000	          0.00000000	         36.43748400	        606.78552100	         27.68064300	          0.99040800	          0.00600000	         -0.29727500	          0.00000000	          5.21545400	          0.00000000	
          0.96750000	          0.00000000	          0.00000000	          0.00000000	          1.24380500	          0.00000000	         -0.18640600	          0.00000000	          0.00000000	          0.00000000	         36.71743200	        607.59006500	         27.70795800	          0.99055100	          0.00600000	         -0.29724100	          0.00000000	          5.22072800	          0.00000000	
          0.96800000	          0.00000000	          0.00000000	          0.00000000	          1.24516600	          0.00000000	         -0.18644600	          0.00000000	          0.00000000	          0.00000000	         36.99747900	        608.39279300	         27.73482400	          0.99069400	          0.00600000	         -0.29720700	          0.00000000	          5.22592700	          0.00000000	
          0.96850000	          0.00000000	          0.00000000	          0.00000000	          1.24652700	          0.00000000	         -0.18648600	          0.00000000	          0.00000000	          0.00000000	         37.27761800	        609.19361800	         27.76123500	          0.99083700	          0.00600000	         -0.29717300	          0.00000000	          5.23104900	          0.00000000	
          0.96900000	          0.00000000	          0.00000000	          0.00000000	          1.24788700	          0.00000000	         -0.18652700	          0.00000000	          0.00000000	          0.00000000	         37.55784300	        609.99245500	         27.78718400	          0.99098000	          0.00600000	         -0.29713900	          0.00000000	          5.23609500	          0.00000000	
          0.96950000	          0.00000000	          0.00000000	          0.00000000	          1.24924800	          0.00000000	         -0.18656700	          0.00000000	          0.00000000	          0.00000000	         37.83814700	        610.78921700	         27.81266400	          0.99112200	          0.00600000	         -0.29710500	          0.00000000	          5.24106400	          0.00000000	
          0.97000000	          0.00000000	          0.00000000	          0.00000000	          1.25060900	          0.00000000	         -0.18660700	          0.00000000	          0.00000000	          0.00000000	         38.11852600	        611.58381700	         27.83767000	          0.99126500	          0.00600000	         -0.29707100	          0.00000000	          5.24595500	          0.00000000	
          0.97050000	          0.00000000	          0.00000000	          0.00000000	          1.25197000	          0.00000000	         -0.18664800	          0.00000000	          0.00000000	          0.00000000	         38.39897100	        612.37616700	         27.86219500	          0.99140800	          0.00600000	         -0.29703700	          0.00000000	          5.25076900	          0.00000000	
          0.97100000	          0.00000000	          0.00000000	          0.00000000	          1.25333100	          0.00000000	         -0.18668800	          0.00000000	          0.00000000	          0.00000000	         38.67947800	        613.16618100	         27.88623400	          0.99155000	          0.00600000	         -0.29700300	          0.00000000	          5.25550300	          0.00000000	
          0.97150000	          0.00000000	          0.00000000	          0.00000000	          1.25469100	          0.00000000	         -0.18672800	          0.00000000	          0.00000000	          0.00000000	         38.96003900	        613.95377200	         27.90978000	          0.99169300	          0.00600000	         -0.29696900	          0.00000000	          5.26015800	          0.00000000	
          0.97200000	          0.00000000	          0.00000000	          0.00000000	          1.25605200	          0.00000000	         -0.18676900	          0.00000000	          0.00000000	          0.00000000	         39.24064900	        614.73885100	         27.93282700	          0.99183500	          0.00600000	         -0.29693400	          0.00000000	          5.26473400	          0.00000000	
          0.97250000	          0.00000000	          0.00000000	          0.00000000	          1.25741300	          0.00000000	         -0.18680900	          0.00000000	          0.00000000	          0.00000000	         39.52130000	        615.52133000	         27.95537000	          0.99197800	          0.00600000	         -0.29690000	          0.00000000	          5.26923000	          0.00000000	
          0.97300000	          0.00000000	          0.00000000	          0.00000000	          1.25877400	          0.00000000	         -0.18684900	          0.00000000	          0.00000000	          0.00000000	         39.80198700	        616.30112300	         27.97740200	          0.99212000	          0.00600000	         -0.29686600	          0.00000000	          5.27364400	          0.00000000	
          0.97350000	          0.00000000	          0.00000000	          0.00000000	          1.26013500	          0.00000000	         -0.18688900	          0.00000000	          0.00000000	          0.00000000	         40.08270100	        617.07813900	         27.99891900	          0.99226200	          0.00600000	         -0.29683200	          0.00000000	          5.27797800	          0.00000000	
          0.97400000	          0.00000000	          0.00000000	          0.00000000	          1.26149500	          0.00000000	         -0.18693000	          0.00000000	          0.00000000	          0.00000000	         40.36343800	        617.85229200	         28.01991400	          0.99240500	          0.00600000	         -0.29679800	          0.00000000	          5.28223000	          0.00000000	
          0.97450000	          0.00000000	          0.00000000	          0.00000000	          1.26285600	          0.00000000	         -0.18697000	          0.00000000	          0.00000000	          0.00000000	         40.64419000	        618.62349200	         28.04038200	          0.99254700	          0.00600000	         -0.29676400	          0.00000000	          5.28639900	          0.00000000	
          0.97500000	          0.00000000	          0.00000000	          0.00000000	          1.26421700	          0.00000000	         -0.18701000	          0.00000000	          0.00000000	          0.00000000	         40.92494900	        619.39165100	         28.06031800	          0.99268900	          0.00600000	         -0.29673000	          0.00000000	          5.29048600	          0.00000000	
          0.97550000	          0.00000000	          0.00000000	          0.00000000	          1.26557800	          0.00000000	         -0.18705100	          0.00000000	          0.00000000	          0.00000000	         41.20571000	        620.15667900	         28.07971500	          0.99283100	          0.00600000	         -0.29669600	          0.00000000	          5.29449000	          0.00000000	
          0.97600000	          0.00000000	          0.00000000	          0.00000000	          1.26693900	          0.00000000	         -0.18709100	          0.00000000	          0.00000000	          0.00000000	         41.48646500	        620.91848900	         28.09856900	          0.99297300	          0.00600000	         -0.29666200	          0.00000000	          5.29841000	          0.00000000	
          0.97650000	          0.00000000	          0.00000000	          0.00000000	          1.26829900	          0.00000000	         -0.18713100	          0.00000000	          0.00000000	          0.00000000	         41.76720800	        621.67698900	         28.11687500	          0.99311500	          0.00600000	         -0.29662800	          0.00000000	          5.30224600	          0.00000000	
          0.97700000	          0.00000000	          0.00000000	          0.00000000	          1.26966000	          0.00000000	         -0.18717200	          0.00000000	          0.00000000	          0.00000000	         42.04793000	        622.43209200	         28.13462700	          0.99325700	          0.00600000	         -0.29659400	          0.00000000	          5.30599700	          0.00000000	
          0.97750000	          0.00000000	          0.00000000	          0.00000000	          1.27102100	          0.00000000	         -0.18721200	          0.00000000	          0.00000000	          0.00000000	         42.32862500	        623.18370600	         28.15182100	          0.99339800	          0.00600000	         -0.29656000	          0.00000000	          5.30966400	          0.00000000	
